<svg xmlns="http://www.w3.org/2000/svg" xmlns:xlink="http://www.w3.org/1999/xlink" viewBox="0 0 512 512"><defs><style>.cls-1{fill:#fff;}.cls-2{fill:url(#Безымянный_градиент_65);}</style><linearGradient id="Безымянный_градиент_65" x1="133.149" y1="390.802" x2="404.114" y2="119.836" gradientUnits="userSpaceOnUse"><stop offset="0" stop-color="#aaffda"/><stop offset="0.187" stop-color="#86dcad"/><stop offset="0.586" stop-color="#3f9752"/><stop offset="0.866" stop-color="#126b19"/><stop offset="1" stop-color="#005a03"/></linearGradient></defs><title>color</title><g id="Слой_2" data-name="Слой 2"><circle class="cls-1" cx="256" cy="256" r="256"/></g><g id="Слой_1" data-name="Слой 1"><path class="cls-2" d="M193.148,79.694c-21.925,5.143-40.416,20.558-53.27,39.049s-20.669,39.974-27.307,61.494c-18.516,60.023-28.751,125.6-8.7,185.129,5.405,16.048,15.2,33.225,31.818,36.481,10.943,2.144,22.326-2.608,30.742-9.923s14.4-16.964,20.248-26.457c3.882,19.318,24.768,33.484,44.152,29.945s33.919-24.169,30.726-43.613c-1.518,14.69,5.042,30.148,17.15,38.6s29.387,9.139,41.707,1,18.451-24.9,13.574-38.837c4.384,20.543,17.114,42.242,37.864,45.507,14.15,2.227,28.588-5.156,37.806-16.121s13.931-25.028,16.837-39.055c9.3-44.9,1.948-91.524-8.319-136.212-9.967-43.387-24.742-89.258-60.409-115.9C330.1,70.119,293.929,64.45,259.4,64.774c-29.318.276-59.576,4.751-84.421,20.317-25.209,15.8-42.686,41.805-53.514,69.513s-15.626,57.338-20.355,86.708" transform="translate(-1)"/><path d="M192.953,78.967c-26.248,6.457-46.747,25.874-60.152,48.715-16.161,27.537-24.941,60.026-31.99,90.944-7.2,31.571-11.141,64.191-8.541,96.57a212.42,212.42,0,0,0,9.3,47.954c3.852,11.993,9.382,24.65,19.385,32.81,10.233,8.349,23.545,9.011,35.33,3.567,14.676-6.779,23.561-20.758,31.746-34.028l-2.8.356c4.459,20.025,25.54,34.13,45.8,30.285s34.888-24.39,31.98-44.729c-.139-.972-2.826-.279-2.9.569-2.114,24.879,16.885,47.55,42.62,45.893,22.57-1.454,39.923-23.389,32.709-45.7-.323-1-3.127-.253-2.9.777,4.436,19.983,16.784,42.973,39.184,46.009,24.017,3.255,42.857-16.484,50.777-37.11,10.5-27.336,11.091-58.706,8.623-87.529-2.523-29.457-8.608-58.824-16.282-87.348-6.337-23.558-14.681-47.039-28.334-67.432a116.886,116.886,0,0,0-57.715-45.458c-24.589-8.912-51.345-10.944-77.31-9.93-25.721,1-52.02,5.64-74.516,18.76-55.323,32.266-67.982,100.679-77.309,158.581-.181,1.123,2.738.631,2.9-.362,8.151-50.6,17.628-106.285,56.959-142.969,19.547-18.232,44.653-27.356,70.851-30.726,25.478-3.276,52.362-2.813,77.5,2.713,23.923,5.259,46.173,16.189,63.053,34.2,15.844,16.9,26.246,38.1,33.818,59.8,8.039,23.037,13.443,47.119,17.91,71.075,5.343,28.659,8.477,58.049,5.551,87.17-2.758,27.453-10.709,65.229-41.515,73.937-28.151,7.957-46.046-20.755-51.24-44.152l-2.9.777c7.074,21.877-10.242,44.489-33.258,43.323-22.942-1.163-38.14-22.705-36.275-44.655l-2.9.569c2.712,18.967-10.784,39.942-30.434,42.639-18.878,2.591-37.482-11.493-41.546-29.747-.228-1.023-2.461-.192-2.8.356-7.323,11.873-15.106,24.625-27.658,31.6-13.783,7.656-28.77,4.647-38.964-7.023-8.3-9.506-12.681-21.786-16.1-33.743a215.486,215.486,0,0,1-7.516-42.75c-2.279-29.791,1.02-59.792,7.221-88.939,6.073-28.548,13.982-57.866,26.563-84.3,12.93-27.165,34.127-52.4,64.464-59.861,1.749-.43,1.362-1.886-.39-1.455Z" transform="translate(-1)"/><path d="M266.159,56.917a.1.1,0,0,1,0-.2.1.1,0,0,1,0,.2Z" transform="translate(-1)"/><circle class="cls-1" cx="318.256" cy="203.468" r="17.69"/><circle class="cls-1" cx="205.532" cy="203.468" r="17.69"/><path d="M333,148.754c-14.273-5.715-31.932-8.809-43.939.8-8.92,7.134-12.04,19.506-11.562,30.919.637,15.249,7.032,30.425,18.407,40.6s27.8,14.856,42.561,10.991,27.113-16.67,29.278-31.779c2.027-14.148-4.706-28.584-15.105-38.389s-24.043-15.51-37.871-19.121m-.067,46.369a15.071,15.071,0,1,1-8.488,6.805,11.892,11.892,0,0,1,6.769-5.594c4.7-1.348,10.439-3.007,13.979.362" transform="translate(-1)"/><path d="M332,152.4c-8.647-1.334-17.039-4.349-25.906-3.692-8.72.647-16.135,5.119-19.965,13.1-7.417,15.451-2.414,36.331,7.784,49.326,10.79,13.749,30.446,20.648,46.911,13.1,15.021-6.887,23.178-22.716,18.3-38.769-6.346-20.875-27.419-29.558-45.937-36.933-7.2-2.868-4.439-12.618,3.174-11.511,23.847,3.469,47.083,18.1,55.986,41.261,8.19,21.3-.907,44.462-20.588,55.6-20.181,11.416-46.447,4.718-62.1-11.336-14.787-15.163-21.958-40.146-15.038-60.55,3.839-11.317,12.563-20.382,24.5-22.911,11.788-2.5,25.785-.312,35.789,6.42,3.7,2.487,1.269,7.544-2.908,6.9Z" transform="translate(-1)"/><path d="M259.629,56.917a.1.1,0,0,0,0-.2.1.1,0,0,0,0,.2Z" transform="translate(-1)"/><path d="M422.96,183.739c-10.892-38.373-24.551-77.648-59.251-100.747-28.877-19.223-65.992-25.82-100.815-23.569-34.823-2.251-71.938,4.346-100.815,23.569-34.7,23.1-48.359,62.374-59.251,100.747-11.912,41.968-19.078,86.124-15.81,129.825,2.363,31.591,8.468,84.357,46.28,93.57,19.76,4.815,40.286-5.107,52.193-20.831.363-.479.713-.964,1.06-1.451,8.032,14.39,23.276,24.482,40.2,22.523,14.673-1.7,27.937-10.834,36.146-23.062,8.209,12.228,21.473,21.363,36.146,23.062,16.921,1.959,32.165-8.133,40.2-22.523.346.487.7.972,1.059,1.451,11.908,15.724,32.433,25.646,52.194,20.831,37.811-9.213,43.917-61.979,46.28-93.57C442.038,269.863,434.872,225.707,422.96,183.739Zm-1.66,126.83c-1.111,17.519-3.608,35.572-9.425,52.207-4.216,12.056-12.088,25.555-25.848,27.819-13.47,2.215-27.532-6.657-34.391-17.811a52.541,52.541,0,0,1-5.26-11.566c1.38-13.2-.641-26.8-2.861-40.01-.715-4.256-5.542-6.594-9.4-6.136-4.487.534-7.014,4.178-7.427,8.412-1.274,13.051-.941,26.844,2.517,39.644a43.588,43.588,0,0,1-3.092,10.351c-4.875,10.892-15.276,19.788-27.82,16.876-14.887-3.457-22.653-14-26.532-26.838,3.657-14.725,3.209-30.322,2.214-45.474-.415-6.32-6.333-8.99-11.084-7.978-4.752-1.012-10.669,1.658-11.084,7.978-1,15.152-1.443,30.749,2.213,45.474-3.878,12.839-11.645,23.381-26.531,26.838-12.544,2.912-22.945-5.984-27.82-16.876a43.541,43.541,0,0,1-3.092-10.351c3.458-12.8,3.791-26.593,2.517-39.644-.414-4.234-2.94-7.878-7.427-8.412-3.855-.458-8.682,1.88-9.4,6.136-2.22,13.208-4.241,26.814-2.861,40.01a52.541,52.541,0,0,1-5.26,11.566c-6.859,11.154-20.921,20.026-34.391,17.811-13.761-2.264-21.632-15.763-25.848-27.819-5.817-16.635-8.314-34.688-9.425-52.207-2.447-38.579,3.3-77.1,13.262-114.313,8.85-33.07,18.982-70.66,46.705-93.151,14.352-11.643,31.975-18.483,49.813-22.638,16.012-3.73,32.317-4.485,48.626-5.47,16.309.985,32.614,1.74,48.626,5.47,17.837,4.155,35.461,11,49.813,22.638,27.723,22.491,37.855,60.081,46.7,93.151C418,233.468,423.747,271.99,421.3,310.569Z" transform="translate(-1)"/><path d="M192.785,148.754c14.273-5.715,31.932-8.809,43.938.8,8.921,7.134,12.041,19.506,11.563,30.919-.637,15.249-7.032,30.425-18.408,40.6s-27.794,14.856-42.56,10.991S160.2,215.39,158.04,200.281c-2.027-14.148,4.706-28.584,15.105-38.389s24.042-15.51,37.871-19.121m.067,46.369a15.071,15.071,0,1,0,8.488,6.805,11.892,11.892,0,0,0-6.769-5.594c-4.7-1.348-10.439-3.007-13.979.362" transform="translate(-1)"/><path d="M193.788,152.4c8.647-1.334,17.039-4.349,25.906-3.692,8.72.647,16.135,5.119,19.965,13.1,7.417,15.451,2.414,36.331-7.784,49.326-10.79,13.749-30.446,20.648-46.911,13.1-15.021-6.887-23.178-22.716-18.3-38.769,6.345-20.875,27.419-29.558,45.936-36.933,7.2-2.868,4.44-12.618-3.173-11.511-23.847,3.469-47.083,18.1-55.986,41.261-8.191,21.3.907,44.462,20.588,55.6,20.181,11.416,46.447,4.718,62.1-11.336,14.787-15.163,21.958-40.146,15.038-60.55-3.839-11.317-12.563-20.382-24.5-22.911-11.788-2.5-25.785-.312-35.79,6.42-3.7,2.487-1.268,7.544,2.909,6.9Z" transform="translate(-1)"/></g></svg>