<svg xmlns="http://www.w3.org/2000/svg" xmlns:xlink="http://www.w3.org/1999/xlink" viewBox="0 0 1107 1107" preserveAspectRatio="xMidYMid meet">
    <defs>
        <style>
            .cls-x{fill:transparent;cursor:pointer;transition:transform 0.1s ease, stroke 0.5s ease;}
            .cls-1{fill:none;}
            .cls-2{clip-path:url(#clip-path);cursor:crosshair;}
        </style>
        <clipPath id="clip-path" transform="translate(-4.5 34.5)">
            <path d="M1081,519.5c0,288.569-233.931,522.5-522.5,522.5S36,808.069,36,519.5c0-167.551,78.87-316.676,201.5-412.291L285.877,168.1c-104.937,81.233-172.5,208.422-172.5,351.4,0,245.283,198.842,444.125,444.125,444.125S1001.625,764.783,1001.625,519.5c0-143.034-67.62-270.269-172.632-351.5l49.123-61.865C1001.537,201.708,1081,351.321,1081,519.5Z" class="cls-1"/>
        </clipPath>
    </defs>
    <g id="hl1" data-name="hl1">
        <path d="M878.116,106.137C1001.537,201.708,1081,351.321,1081,519.5c0,288.569-233.931,522.5-522.5,522.5S36,808.069,36,519.5c0-167.551,78.87-316.676,201.5-412.291L285.877,168.1c-104.937,81.233-172.5,208.422-172.5,351.4,0,245.283,198.842,444.125,444.125,444.125S1001.625,764.783,1001.625,519.5c0-143.034-67.62-270.27-172.632-351.5l49.123-61.865m0-6a5.99,5.99,0,0,0-4.7,2.269l-49.123,61.865a6,6,0,0,0,1.028,8.477c108.23,83.718,170.3,210.1,170.3,346.752,0,241.583-196.542,438.125-438.125,438.125S119.375,761.083,119.375,519.5c0-136.584,62.026-262.934,170.175-346.653a6,6,0,0,0,1.025-8.476L242.2,103.477a6,6,0,0,0-8.387-1A530.691,530.691,0,0,0,85.4,283.7,525.694,525.694,0,0,0,44.4,396.448,531.054,531.054,0,0,0,30,519.5,528.637,528.637,0,0,0,1045.465,725.218,525.187,525.187,0,0,0,1087,519.5,531.05,531.05,0,0,0,1072.491,396,526.775,526.775,0,0,0,966.515,183.578a532.362,532.362,0,0,0-84.726-82.185,5.974,5.974,0,0,0-3.669-1.256Z" transform="translate(-4.5 34.5)"/>
        <g class="cls-2">
            <image width="1067" height="948" transform="translate(20.5 133.5)" xlink:href="/static/images/horns.png"/>
        </g>
    </g>
    <g id="hl2" data-name="hl2">
        <rect width="1107" height="1107" class="cls-1"/>
    </g>
    <circle id="picker" class="cls-x" r="19.2" style="stroke-width:8.4;stroke:rgb(130,130,130);"></circle>
</svg>
