<svg xmlns="http://www.w3.org/2000/svg" xmlns:xlink="http://www.w3.org/1999/xlink" viewBox="0 0 512 512"><defs><style>.cls-1{fill:#fff;}.cls-2{fill:#f15a24;}.cls-3{fill:url(#Безымянный_градиент_80);}.cls-4{fill:none;stroke:#f36e73;stroke-miterlimit:10;stroke-width:2px;}</style><linearGradient id="Безымянный_градиент_80" x1="74.647" y1="328.419" x2="211.974" y2="328.419" gradientUnits="userSpaceOnUse"><stop offset="0" stop-color="#963"/><stop offset="0.524" stop-color="#8a5c16"/><stop offset="1" stop-color="#7f5500"/></linearGradient></defs><title>paint</title><g id="Слой_2" data-name="Слой 2"><circle class="cls-1" cx="256" cy="256" r="256"/></g><g id="Слой_3" data-name="Слой 3"><g id="Слой_6" data-name="Слой 6"><path class="cls-2" d="M179.144,307.607l-.343-.233c-6.583-4.477-15.736-3.624-22.393,0-9.839,5.356-16.4,17.022-16.3,28.2.08,9.229,2.943,17.248,6.738,25.507,5.825,12.673,15.412,22.74,26.431,31.018,23.682,17.791,55.8,18,82.039,6.444,12.122-5.337,22.226-14.507,30.509-24.7,3.023-3.72,5.917-7.545,8.833-11.349q1.286-1.678,2.566-3.363c3.48-4.58-2.892,3.58-.491.647,1.955-2.39,3.834-4.869,5.7-7.314,3.486-4.558-2.9,3.477-.454.6,2.014-2.366,3.977-4.752,6.187-6.945.4-.4,3.175-3.512,3.694-3.392-1.173-.272-4.292,2.988-.37.4,1.093-.721,2.26-1.32,3.355-2.031,4.265-2.769-4,1.2-.879.267,1.242-.371,2.443-.84,3.7-1.161l1.5-.349q3.081-.548-.137-.035l-1.643.246a27.6,27.6,0,0,1,3.044-.057c4.8-.3-5.51-.567.465.226,2.789.369-4.584-2.941-.6-.316,1.1.725,2.265,1.434,3.387,2.131,2.8,1.739-4.1-3.5-.119-.01,1.019.893,2.082,1.738,3.137,2.587a73.787,73.787,0,0,0,21.769,12.5c14.1,5.233,30.131,5,44.75,2.544a95.586,95.586,0,0,0,23.82-7.681c3.263-1.468,6.917-2.812,9.92-4.757,4.115-2.666,6.769-6.442,9.551-10.372,4.74-6.7-.23-16.4-7.48-18.385-3.393-.929-6.8-1.9-10.36-1.845-3.831.055-7.942,1.36-11.7,2.065q-1.842.345-3.689.662c.39-.066-5.677.914-3.067.51,3.469-.538-5.2.772-6.192.947-1.835.322-3.658.7-5.5.986,3.3-.518.2-.034-.428.006-1.764.113-3.517.284-5.285.336q-3.192.094-6.385-.091c-1.055-.063-6.058.231-1.093.03a14.292,14.292,0,0,1-3.121-.6c-1.288-.3-2.559-.68-3.818-1.083-.678-.217-5.317-2.313-2.711-.926,2.922,1.556-1.588-.929-1.752-1.021-.908-.509-1.772-1.127-2.686-1.621-4.369-2.362,2.82,3.078-.656-.443-.746-.755-1.557-1.444-2.3-2.2-4.865-4.93-9.008-9.866-14.891-13.783-12.453-8.292-28.909-9.435-43.109-5.73-13.452,3.511-25.313,11.976-35.073,21.629-7.83,7.744-13.735,17.18-21.224,25.244-1.921,2.068-3.99,3.92-6.009,5.884-3.253,3.165.8-.942,1.445-.979-.876.05-3.1,2.188-3.89,2.688-1.776,1.133-3.656,2.05-5.49,3.076-4.871,2.725,5.871-1.8.508-.221-1.513.447-2.986,1-4.514,1.409-1.229.328-9,1.97-4.24,1.028,4.629-.916-.324-.081-1.224-.042-1.048.046-2.1.066-3.15.055-.978-.01-3.885-.645-4.713-.245a20.1,20.1,0,1,0,2.241.286,64.934,64.934,0,0,1-8.152-2.161c-2.256-.791-3.827-2.592,1.36.66-1.224-.768-2.7-1.317-3.969-2.026-.862-.483-1.713-.993-2.555-1.513-.87-.537-5.543-4.361-2.308-1.355,3.277,3.045-.354-.354-.878-.819-1.11-.987-2.188-2.015-3.221-3.082-.687-.71-1.316-1.481-2.008-2.184-3.372-3.426,3.281,4.826-.164-.206a68.689,68.689,0,0,1-4.105-7.046c-2.059-3.937.809,1.611.645,1.627a31.41,31.41,0,0,1-1.021-3.2q-.678-3.237-.082-.031c-1.237,3.921,1.4-.8.114-1.5q-.777,5.436-.162,2.735.231-.992.545-1.96c2.35-9.947-1.487-19.131-9.852-24.819Z" transform="translate(-1)"/></g><path class="cls-3" d="M188.7,282.7c-7.8-11.592-26.033-11.624-37.395-3.5s-20,22.877-24.568,36.078-5.376,22.389-14.374,33.074S87.046,369.1,74.647,362.66c18.83,14.97,46.21,22.117,70.207,20.442,15.736-1.1,28.772-7.664,40.347-15.736,17.542-12.233,24.346-19.329,26.57-40.6s-14.175-40.24-31.054-50.086" transform="translate(-1)"/><path d="M191.793,281.847c-3.086-13.046-20.349-15.4-31.459-12.667-14.021,3.445-24.223,15.535-31.141,27.554a108.648,108.648,0,0,0-9.314,21.858c-2.025,6.471-3.578,13.182-6.872,19.162A42.473,42.473,0,0,1,96.926,353.7c-5.446,3.15-12.808,6.171-18.941,3.251-6.237-2.97-14.339,5.412-8.014,10.386,27.179,21.37,68.416,30.124,100.768,16.038a118.583,118.583,0,0,0,22.617-13.512c5.352-3.926,10.664-8.052,14.838-13.257,9.193-11.462,12.854-27.308,10.533-41.748-2.891-17.989-17.589-37.136-34.348-44.443-3.358-1.464-6.978-1.218-9.36,1.869-1.991,2.58-2.282,7.293.567,9.528,11.085,8.695,22.771,17.077,27.256,31.187,3.294,10.365,1.748,24.86-4.6,33.958-6.623,9.5-18.533,16.733-28.567,21.988-13.88,7.269-29.059,8.8-44.463,6.935A96.36,96.36,0,0,1,77.985,356.95L71.31,368.37c14.03,6.519,28.363.233,39.071-9.6C121.341,348.7,126,336.1,130.244,322.273c4.333-14.113,11.458-29.48,23.82-38.352a27.458,27.458,0,0,1,16.643-5.058c6.214.157,11.274,3.453,16.376,6.605,2.467,1.524,5.333-.986,4.71-3.621Z" transform="translate(-1)"/><path d="M366.78,67.29A584.807,584.807,0,0,0,259.2,168.037c-21.656,26.151-40.993,54.143-59.427,82.657-2.478,3.833-5.049,8.184-4.193,12.667.653,3.421,3.18,6.132,5.6,8.639,5.422,5.62,10.254,10.553,15.923,14.09,4.4,2.743,15.239-1.171,18.572-4.578,57.41-58.688,110.624-109.7,143.278-185.1,2.359-5.448,4.625-11.284,3.791-17.163s-5.538-13.27-11.839-10.879" transform="translate(-1)"/><path d="M364.84,63.971c-18.067,11.422-34.564,25.527-50.418,39.812a585.232,585.232,0,0,0-45.769,46.089c-14.623,16.463-28.25,33.788-41.16,51.62q-10.235,14.138-19.926,28.658-4.467,6.662-8.851,13.376c-3.078,4.711-6.806,9.557-7.831,15.223-1.78,9.843,7.021,17.241,13.356,23.38s12.271,11.237,21.471,9.552c8.611-1.577,13.773-6.565,19.708-12.559,7.137-7.207,14.293-14.393,21.377-21.651,27.586-28.264,54.677-57.194,77.644-89.415a382.551,382.551,0,0,0,34.3-57.983c4.7-9.915,11.007-20.945,9.3-32.284-1.4-9.253-8.579-17.9-18.709-15.162-7.39,2-4.2,13.665,3.165,11.48,2.487-.737,4.239,3.419,4.726,5.411,1.132,4.624-1.228,9.972-2.99,14.127-3.525,8.312-7.5,16.458-11.7,24.445a390.541,390.541,0,0,1-27.484,44.471c-20.14,28.295-43.678,53.96-67.756,78.915-6.2,6.424-12.447,12.8-18.672,19.2q-4.44,4.566-8.884,9.13c-2.832,2.912-5.591,6.579-8.923,8.9a19.351,19.351,0,0,1-8.345,3.067c-4.008.462-7.081-2.968-9.885-5.471a116.9,116.9,0,0,1-9.514-9.375c-4.3-4.834-2.211-8.937.861-13.807,21.335-33.833,44.8-66.682,71.317-96.659a584.256,584.256,0,0,1,45.016-45.584C336.085,96.512,353.049,83.62,369.5,70.008c3.372-2.79-1-8.348-4.658-6.037Z" transform="translate(-1)"/><path class="cls-4" d="M308.844,306.29" transform="translate(-1)"/><path d="M139.653,363.792c7.049-4.374,14-10.033,18.5-17.1.318-.5-.412-1.108-.823-.658-5.72,6.264-11.226,12.065-18.449,16.66-.732.466.037,1.557.769,1.1Z" transform="translate(-1)"/><path d="M126.94,366.243c7.837-4.048,15.779-9.252,21.644-15.934.416-.474-.187-1.172-.678-.735-6.767,6.016-13.434,11.513-21.511,15.721-.626.326-.079,1.271.545.948Z" transform="translate(-1)"/><path d="M117.339,366.157c9.405-2.05,19.026-6.567,25.284-14.113.32-.387-.272-.9-.642-.585-7.6,6.536-15.012,11.661-24.828,14.167-.355.091-.16.606.186.531Z" transform="translate(-1)"/><path d="M158.892,301.607c-5.333-3.649-12.712,5.9-15.526,9.523-6.348,8.164-9.8,18.014-12.228,27.953a.861.861,0,0,0,1.636.532c3.388-7.893,9.657-19.632,18.909-21.35l-1.088-1.126c-.88,2.211-8.677,17.862-1.893,17.286,1.638-.139,3.146-2.079,4.118-3.061,2.162-2.183,4.247-4.449,6.368-6.672,1.21-1.266,5.7-7.8,7.276-3.823.506,1.281-1.389,3.118-.514,4.818a4.029,4.029,0,0,0,4.844,1.744c1.481-.409,2.6-1.648,3.715-2.619.875-.76,1.724-1.546,2.608-2.3q1-.84,2.012-1.661,1.128-1.37.725.667c.474,2.3-2.266,5.779-3.388,7.763-1.384,2.446-2.832,4.848-4.4,7.178-3.282,4.87-7.186,9.221-10.771,13.855-.678.877.7,1.753,1.445,1.121,7.6-6.47,13.48-15.722,17.541-24.75.79-1.756,3.756-6.421,1.443-8.1-1.786-1.3-4.611,1.75-5.755,2.659-.929.738-1.822,1.515-2.742,2.261q-1.749,2.938-3.689.428-2.652-.618-1.2-2.607c-.127-1.051.461-1.919-.007-3.036-.785-1.873-2.341-2.3-4.15-1.359-2.184,1.137-4.029,4-5.711,5.773q-3.169,3.339-6.338,6.677c-.862.909-2.915,3.28-4.238,1.23-.343-.532,1.059-3.548,1.235-4.1.956-3,2.036-5.941,3.191-8.865.272-.686-.475-1.242-1.087-1.126-10,1.882-16.478,14.072-20.1,22.561l1.636.532c1.791-7.406,4.088-14.7,7.84-21.374,2.6-4.63,11.2-18.083,17.857-15.569.651.246.918-.725.421-1.065Z" transform="translate(-1)"/><path class="cls-1" d="M204.333,258.718c9.657-13.957,19.17-28.005,29.408-41.548,10.16-13.443,21.883-26.02,31.267-40.01.949-1.414-1.112-2.849-2.282-1.761-12.151,11.3-21.993,25.733-31.653,39.147a508.975,508.975,0,0,0-28.44,43.178.985.985,0,0,0,1.7.994Z" transform="translate(-1)"/></g></svg>